<svg id="Layer_1" data-name="Layer 1" xmlns="http://www.w3.org/2000/svg" viewBox="0 0 757.01 223.66"><defs><style>.cls-1{fill:#67676b;}.cls-2,.cls-3{fill:#2d2c82;}.cls-3{fill-rule:evenodd;}</style></defs><title>åsane byggsenter logo</title><path class="cls-1" d="M962.33,518.5V503.44h-757V518.5Z" transform="translate(-205.32 -294.84)"/><polygon class="cls-1" points="540.09 102.36 376.67 0 213.79 102.9 120.23 48.96 13.59 110.53 226.89 110.54 376.59 14.45 529.43 110.53 742.74 110.54 636.07 48.96 540.09 102.36"/><path class="cls-2" d="M916.62,452c1.32,0,2.65,0,3.72.09,2.24.24,3.17.73,3.68,1.28a2.92,2.92,0,0,1,.53,2.62,5.74,5.74,0,0,1-.77,2,6.88,6.88,0,0,1-2.07,2.21,10.72,10.72,0,0,1-3.47,1.4,16.85,16.85,0,0,1-7.27.08c.08,3,.16,6.05.15,11.16s-.14,12.31-.25,19.51H933c-.44-4-.88-7.94-1.18-10.74s-.48-4.44-.61-5.79-.23-2.4-.31-3.47-.16-2.13-.23-3.2a30.12,30.12,0,0,0,6.83-3.81,20.2,20.2,0,0,0,4.68-4.85,22.45,22.45,0,0,0,2.83-5.7c1.26-3.85,1.46-7.32-.08-10.24a9.85,9.85,0,0,0-3.59-3.73,16,16,0,0,0-5-1.82,36.57,36.57,0,0,0-4.62-.66c-1.35-.11-2.44-.1-3.54-.1H895.8c-2.92,11.14-5.84,22.28-8.55,31.3s-5.2,15.91-7.7,22.81h20.69c2.06-7.69,4.12-15.37,6-22.09S910,457.72,911.75,452Z" transform="translate(-205.32 -294.84)"/><path class="cls-2" d="M873,438.18H825c-.53,2.43-1.14,4.84-2.68,10.27s-4,13.88-6.47,21.69-4.87,15-7.42,22.15h48.1l4.7-14.93c-4.07.21-8.14.42-12.69.54s-9.57.16-14.59.19l1.84-5.76h22l4.51-14.52-8.43.25c-2.26.05-3.69.08-5.12.08h-8.35l1.84-5.76h11.19c3,0,6,0,8.51.09s4.6.14,6.66.23Z" transform="translate(-205.32 -294.84)"/><path class="cls-2" d="M804.25,438.18H749.73l-4.14,14.68,2.46-.17c.76-.05,1.43-.09,2.38-.13s2.18-.09,4.23-.12,5-.06,7.84-.06c-.76,3.08-1.57,6.14-2.59,9.67s-2.23,7.53-3.89,12.65-3.75,11.37-5.91,17.59h21.5c.79-3.12,1.62-6.23,3-10.94s3.18-11,4.73-16.1,2.81-9,4.13-12.87c3.18,0,6.36,0,9.12.11s5.12.23,7.47.37Z" transform="translate(-205.32 -294.84)"/><path class="cls-2" d="M675.29,492.29c1.19-4.51,2.37-9,3.77-14s3-10.3,4.58-15.66h.17c.43,2.25.87,4.5,2.13,9.44s3.33,12.55,5.41,20.17H715.6c2.41-8.47,4.81-16.93,7.6-26s6-18.59,9.14-28.16H713.2c-1.32,5-2.63,9.93-4.08,15s-3,10.2-4.63,15.35h-.16c-1.07-5.22-2.15-10.44-3.31-15.49s-2.4-9.95-3.64-14.85H672.55c-2.53,9.37-5.07,18.74-7.82,27.76s-5.71,17.68-8.67,26.35Z" transform="translate(-205.32 -294.84)"/><path class="cls-2" d="M649.48,438.18h-48c-.53,2.43-1.14,4.84-2.68,10.27s-4,13.88-6.48,21.69-4.86,15-7.41,22.15H633l4.7-14.93c-4.07.21-8.14.42-12.69.54s-9.57.16-14.59.19l1.84-5.76h22l4.52-14.52-8.44.25c-2.25.05-3.68.08-5.11.08h-8.36l1.85-5.76h11.19c3,0,6,0,8.51.09s4.6.14,6.66.23Z" transform="translate(-205.32 -294.84)"/><path class="cls-2" d="M575.11,438.93a73.67,73.67,0,0,0-15.39-1.74,40.16,40.16,0,0,0-10.65,1.41,24.42,24.42,0,0,0-6.17,2.53,23.36,23.36,0,0,0-4.83,3.68,18.73,18.73,0,0,0-3.2,4.54,15.16,15.16,0,0,0-1.55,4.71,13.4,13.4,0,0,0,.28,5.32,16,16,0,0,0,2.51,5c2.12,2.94,4.8,5.11,6.74,7.05A15,15,0,0,1,545,474a3,3,0,0,1,.5,2,2.33,2.33,0,0,1-1.19,1.77,9,9,0,0,1-3.82.94,23.63,23.63,0,0,1-6.44-.47,44.84,44.84,0,0,1-8.55-2.75l-2.61,16.3a113.13,113.13,0,0,0,14.2,1.57,44.36,44.36,0,0,0,9.9-.59,27.6,27.6,0,0,0,13.42-6,20.9,20.9,0,0,0,3.93-4.7,17.87,17.87,0,0,0,2.23-5.09,13.15,13.15,0,0,0,.28-5.22,11.22,11.22,0,0,0-1.65-4.08,20.4,20.4,0,0,0-2.89-3.61c-1.33-1.36-3.18-3.05-4.51-4.33a21.68,21.68,0,0,1-2.69-2.9c-1-1.47-1-2.64.15-3.67a5.47,5.47,0,0,1,3-1.14,24.23,24.23,0,0,1,6.54.18,29,29,0,0,1,7.57,2.33Z" transform="translate(-205.32 -294.84)"/><path class="cls-2" d="M483.9,478.52a27.08,27.08,0,0,1-6.25.5,10.52,10.52,0,0,1-4.09-.95,6.37,6.37,0,0,1-2.42-2c-1.21-1.72-1.66-4.5-.72-8.19a22.59,22.59,0,0,1,2.34-5.68A19,19,0,0,1,482,454a24.85,24.85,0,0,1,7.76-2,47.14,47.14,0,0,1,9,.15,32,32,0,0,1,5.59,1.07c1.53.44,3.06.93,4.56,1.51l3.37-15.49a108.42,108.42,0,0,0-12.42-1.8,73.19,73.19,0,0,0-11.44-.15,58.25,58.25,0,0,0-11,1.81,41.59,41.59,0,0,0-19.25,11.65,41.08,41.08,0,0,0-7,10.9,37.37,37.37,0,0,0-2.89,10.59,19.77,19.77,0,0,0,.59,8.28,15.52,15.52,0,0,0,4.24,6.81,20.55,20.55,0,0,0,8.08,4.3A45,45,0,0,0,473,493.31a132.79,132.79,0,0,0,14.52-.55c4.58-.38,8.41-.82,12.21-1.43,2.22-7.39,4.45-14.79,6.05-20s2.61-8.21,3.6-11.23H484.27l-4.17,13.79h5.28Z" transform="translate(-205.32 -294.84)"/><path class="cls-2" d="M406.8,478.52a27,27,0,0,1-6.24.5,10.58,10.58,0,0,1-4.1-.95,6.26,6.26,0,0,1-2.41-2c-1.21-1.72-1.66-4.5-.72-8.19a22.93,22.93,0,0,1,2.33-5.68,19,19,0,0,1,9.28-8.22,24.85,24.85,0,0,1,7.76-2,47.24,47.24,0,0,1,9.05.15,32.33,32.33,0,0,1,5.59,1.07c1.53.44,3.06.93,4.55,1.51l3.38-15.49a108.42,108.42,0,0,0-12.42-1.8,73.32,73.32,0,0,0-11.45-.15,58.38,58.38,0,0,0-11,1.81,40.17,40.17,0,0,0-9.78,4.12,39.63,39.63,0,0,0-9.47,7.53,41,41,0,0,0-7,10.9,36.72,36.72,0,0,0-2.89,10.59,19.61,19.61,0,0,0,.59,8.28,15.43,15.43,0,0,0,4.24,6.81,20.5,20.5,0,0,0,8.07,4.3A45.06,45.06,0,0,0,396,493.31a132.71,132.71,0,0,0,14.51-.55c4.59-.38,8.41-.82,12.21-1.43,2.23-7.39,4.45-14.79,6.06-20s2.6-8.21,3.59-11.23H407.18L403,473.89h5.27Z" transform="translate(-205.32 -294.84)"/><path class="cls-2" d="M335,472.9c2.57-2.9,5.15-5.79,10.48-11.58s13.44-14.46,21.54-23.14H344.11L330.35,455.3l-2.54-17.12h-23.2l10.22,33.18c-1.22,4.08-2.45,8.17-3.57,11.66s-2.16,6.38-3.19,9.27h21.34Z" transform="translate(-205.32 -294.84)"/><path class="cls-3" d="M239.23,438.18c-1.8,7.21-3.71,14.4-5.81,21.73s-4.37,14.79-6.06,20.22-2.81,8.8-4,12.16H258c1.54,0,3.08-.11,4.41-.24a23.55,23.55,0,0,0,3.84-.69,27.15,27.15,0,0,0,4.63-1.63,17.08,17.08,0,0,0,7.83-6.88,23.27,23.27,0,0,0,2.35-5.61c1-3.71.61-6.52-.78-8.69a8.74,8.74,0,0,0-6.72-3.84l0-.17a16.29,16.29,0,0,0,8.71-4.59,18.25,18.25,0,0,0,3.23-4.38,20.31,20.31,0,0,0,1.64-4.7,15,15,0,0,0,.51-4.16,8.85,8.85,0,0,0-1.08-3.89,9.31,9.31,0,0,0-6.18-4.14,23.27,23.27,0,0,0-3.08-.44,13.81,13.81,0,0,0-2-.06Zm10.38,33.18h7a17.85,17.85,0,0,1,2.25.08,3.34,3.34,0,0,1,2.43,1.06,1.67,1.67,0,0,1,.33,1.11,6.9,6.9,0,0,1-.34,1.94,4.76,4.76,0,0,1-3,3.27,7.67,7.67,0,0,1-2.86.49h-8.19Zm5.85-20.2h7.14a4.89,4.89,0,0,1,2.88.76,2.18,2.18,0,0,1,.73,2.16,6,6,0,0,1-.44,1.58,4.83,4.83,0,0,1-.8,1.23,3.17,3.17,0,0,1-1.44.92,9.11,9.11,0,0,1-3,.57h-7.22Z" transform="translate(-205.32 -294.84)"/><polygon class="cls-3" points="756.86 124.87 748.65 119.85 529.53 119.85 529.53 124.87 756.86 124.87"/><polygon class="cls-3" points="226.91 124.89 226.91 119.87 8.95 119.87 0.65 124.89 226.91 124.89"/><path class="cls-3" d="M693,383.8H662.11c-.34,1.63-.73,3.23-1.73,6.86s-2.59,9.26-4.16,14.47-3.13,10-4.78,14.78h31l3-10c-2.62.14-5.24.28-8.17.36s-6.16.1-9.39.13l1.19-3.85h14.15l2.9-9.69-5.43.17c-1.45,0-2.37.05-3.29.05H672l1.19-3.84h7.2c1.93,0,3.86,0,5.48.06s3,.09,4.29.15Z" transform="translate(-205.32 -294.84)"/><path class="cls-3" d="M614.14,419.91c.76-3,1.53-6,2.42-9.31s1.93-6.87,3-10.45h.1c.28,1.5.56,3,1.37,6.3s2.15,8.38,3.49,13.46h15.61c1.55-5.65,3.1-11.29,4.89-17.31s3.84-12.41,5.88-18.8H638.54q-2.52,9.88-5.6,20.25h-.1c-.7-3.48-1.39-7-2.13-10.34s-1.55-6.64-2.35-9.91h-16c-1.63,6.26-3.27,12.51-5,18.53s-3.67,11.8-5.58,17.58Z" transform="translate(-205.32 -294.84)"/><path class="cls-3" d="M581.24,411.57c.18,1.87.35,3.74.45,5.13s.1,2.3.11,3.21h14.3c-.78-5.81-1.56-11.61-2.25-17.63s-1.3-12.25-1.91-18.48H575.7c-4.43,6.12-8.86,12.24-13.42,18.26s-9.23,11.93-13.9,17.85h14.88l5.61-8.34Zm-6.4-9.2,5.86-8.71.13-.11.43,8.82Z" transform="translate(-205.32 -294.84)"/><path class="cls-3" d="M552.13,384.25a45.42,45.42,0,0,0-9.9-1.17,25.57,25.57,0,0,0-6.86.94,15.07,15.07,0,0,0-4,1.7,14.88,14.88,0,0,0-3.11,2.45,12.23,12.23,0,0,0-2.06,3,10.16,10.16,0,0,0-1,3.14,9,9,0,0,0,.18,3.55,10.64,10.64,0,0,0,1.61,3.36,37.23,37.23,0,0,0,4.34,4.71c1.28,1.33,1.82,2.23,1.72,3s-1.07,1.64-3.23,1.81a14.88,14.88,0,0,1-4.15-.32,28,28,0,0,1-5.51-1.83l-1.67,10.88a69.2,69.2,0,0,0,9.14,1,27.05,27.05,0,0,0,6.37-.39,17.46,17.46,0,0,0,8.64-4,13.91,13.91,0,0,0,2.53-3.14,12,12,0,0,0,1.43-3.4,9,9,0,0,0,.19-3.48,7.67,7.67,0,0,0-1.07-2.72,13,13,0,0,0-1.86-2.4c-.86-.92-2-2-2.9-2.9-1.64-1.63-2.24-2.43-2.2-3.27a1.6,1.6,0,0,1,.56-1.11,3.46,3.46,0,0,1,2-.76,14.93,14.93,0,0,1,4.21.12,18.15,18.15,0,0,1,4.87,1.55Z" transform="translate(-205.32 -294.84)"/><path class="cls-3" d="M496.93,411.57c.17,1.87.35,3.74.44,5.13s.1,2.3.11,3.21h14.31c-.78-5.81-1.57-11.61-2.26-17.63s-1.3-12.25-1.9-18.48H491.39C487,389.92,482.52,396,478,402.06s-9.22,11.93-13.9,17.85h14.88l5.61-8.34Zm-6.41-9.2,5.86-8.71.13-.11.44,8.82Z" transform="translate(-205.32 -294.84)"/><path class="cls-3" d="M498.57,365.46a7.69,7.69,0,0,0-4.91,6.28,7.51,7.51,0,0,0,3.61,7,8.35,8.35,0,0,0,8.37,0,7.55,7.55,0,0,0,3.61-7,7.66,7.66,0,0,0-4.92-6.28A8.27,8.27,0,0,0,498.57,365.46Zm3.65,4.12a3.28,3.28,0,0,1,2.56,3.46,3.31,3.31,0,0,1-6.57-.19,3.27,3.27,0,0,1,2.77-3.31A3.45,3.45,0,0,1,502.22,369.58Z" transform="translate(-205.32 -294.84)"/></svg>