<?xml version="1.0" encoding="utf-8"?>
<!-- Generator: Adobe Illustrator 22.1.0, SVG Export Plug-In . SVG Version: 6.00 Build 0)  -->
<svg version="1.1" id="Layer_1" xmlns="http://www.w3.org/2000/svg" xmlns:xlink="http://www.w3.org/1999/xlink" x="0px" y="0px"
	 viewBox="0 0 850.4 850.4" style="enable-background:new 0 0 850.4 850.4;" xml:space="preserve">
<style type="text/css">
	.st0{fill:#4A4A49;}
</style>
<path class="st0" d="M102.8,386.8c17.3,0,19.2,6.6,19.2,12.4v3.4c0,1.7,0.9,2.6,2.7,2.6h5.7c1.8,0,2.7-0.8,2.7-2.6V398
	c0-13.6-10.2-20.5-30.4-20.5s-30.4,6.9-30.4,20.5v7.6c0,9,7,14.7,13,16.9l29.7,10.7c3.5,1.3,8.1,3.8,8.1,10.1v8.5
	c0,5.8-2.2,12.4-19.5,12.4h-1.7c-17.3,0-19.5-6.6-19.5-12.4v-3.4c0-1.7-0.9-2.6-2.7-2.6h-5.7c-1.8,0-2.7,0.8-2.7,2.6v4.6
	c0,13.6,10.2,20.5,30.4,20.5h2c20.2,0,30.4-6.9,30.4-20.5V441c0-9-7-14.7-13-16.9l-29.7-10.7c-3.5-1.3-8.1-3.8-8.1-10.1v-4.1
	C83.3,393.4,85.5,386.8,102.8,386.8z"/>
<path class="st0" d="M202.6,378.5h-58.3c-1.7,0-2.6,0.9-2.6,2.7v6c0,1.8,0.8,2.7,2.6,2.7h23.4v80c0,1.7,0.9,2.6,2.7,2.6h6
	c1.8,0,2.7-0.8,2.7-2.6v-80h23.4c1.7,0,2.6-0.9,2.6-2.7v-6C205.2,379.4,204.3,378.5,202.6,378.5z"/>
<g>
	<path class="st0" d="M248.4,377.5h-2c-20.2,0-30.4,6.9-30.4,20.5v55.1c0,13.6,10.2,20.5,30.4,20.5h2c20.2,0,30.4-6.9,30.4-20.5V398
		C278.8,384.4,268.6,377.5,248.4,377.5z M267.7,451.8c0,5.8-2.2,12.4-19.5,12.4h-1.7c-17.3,0-19.5-6.6-19.5-12.4v-52.7
		c0-5.8,2.2-12.4,19.5-12.4h1.7c17.3,0,19.5,6.6,19.5,12.4V451.8z"/>
</g>
<g>
	<path class="st0" d="M410.7,378.5h-84.5c-20.2,0-30.4,6.9-30.4,20.5v20.9c0,1.7,0.9,2.6,2.7,2.6h5.7c1.8,0,2.7-0.8,2.7-2.6v-19.7
		c0-5.8,2.2-12.4,19.5-12.4h29.1c-2.2,3-3.3,6.7-3.3,11.2v20.9c0,1.7,0.9,2.6,2.7,2.6h5.7c1.8,0,2.7-0.8,2.7-2.6v-19.7
		c0-5.8,2.2-12.4,19.5-12.4h28c1.7,0,2.6-0.9,2.6-2.7v-3.8C413.3,379.4,412.4,378.5,410.7,378.5z"/>
	<path class="st0" d="M410.7,428.6h-84.5c-20.2,0-30.4,6.9-30.4,20.5v20.9c0,1.7,0.9,2.6,2.7,2.6h5.7c1.8,0,2.7-0.8,2.7-2.6v-19.7
		c0-5.8,2.2-12.4,19.5-12.4h29.1c-2.2,3-3.3,6.7-3.3,11.2v20.9c0,1.7,0.9,2.6,2.7,2.6h5.7c1.8,0,2.7-0.8,2.7-2.6v-19.7
		c0-5.8,2.2-12.4,19.5-12.4h28c1.7,0,2.6-0.9,2.6-2.7v-3.8C413.3,429.5,412.4,428.6,410.7,428.6z"/>
</g>
<path class="st0" d="M693.9,381.1c0-1.7-0.9-2.6-2.7-2.6h-6c-1.8,0-2.7,0.8-2.7,2.6v88.8c0,1.7,0.9,2.6,2.7,2.6h6
	c1.8,0,2.7-0.8,2.7-2.6V381.1z"/>
<path class="st0" d="M768.4,466c0-1.8-0.8-2.7-2.6-2.7h-18.6c-17.3,0-19.5-6.6-19.5-12.4v-69.7c0-1.7-0.9-2.6-2.7-2.6h-5.7
	c-1.8,0-2.7,0.8-2.7,2.6v71c0,13.6,10.2,20.5,30.4,20.5h18.8c1.7,0,2.6-0.9,2.6-2.7V466z"/>
<path class="st0" d="M565,386.8c17.3,0,19.2,6.6,19.2,12.4v3.4c0,1.7,0.9,2.6,2.7,2.6h5.7c1.8,0,2.7-0.8,2.7-2.6V398
	c0-13.6-10.2-20.5-30.4-20.5c-20.2,0-30.4,6.9-30.4,20.5v7.6c0,9,7,14.7,13,16.9l29.7,10.7c3.5,1.3,8.1,3.8,8.1,10.1v8.5
	c0,5.8-2.2,12.4-19.5,12.4H564c-17.3,0-19.5-6.6-19.5-12.4v-3.4c0-1.7-0.9-2.6-2.7-2.6h-5.7c-1.8,0-2.7,0.8-2.7,2.6v4.6
	c0,13.6,10.2,20.5,30.4,20.5h2c20.2,0,30.4-6.9,30.4-20.5V441c0-9-7-14.7-13-16.9l-29.7-10.7c-3.5-1.3-8.1-3.8-8.1-10.1v-4.1
	C545.5,393.4,547.8,386.8,565,386.8z"/>
<path class="st0" d="M664.8,378.5h-58.3c-1.7,0-2.6,0.9-2.6,2.7v6c0,1.8,0.8,2.7,2.6,2.7h23.4v80c0,1.7,0.9,2.6,2.7,2.6h6
	c1.8,0,2.7-0.8,2.7-2.6v-80h23.4c1.7,0,2.6-0.9,2.6-2.7v-6C667.4,379.4,666.5,378.5,664.8,378.5z"/>
<g>
	<path class="st0" d="M499.6,428.6h-31.9c-11.2,0-12.1-3.7-12.1-8.2v-2.9c0-6.1,3.3-8.4,11.8-8.4c8.6,0,11.9,2.4,11.9,8.4v1.3
		c0,1.7,0.9,2.6,2.7,2.6h4.2c1.8,0,2.7-0.8,2.7-2.6v-2.2c0-10.8-7.1-16.1-21.6-16.1c-14.5,0-21.5,5.2-21.5,15.9v5.1
		c0,5.7,1.8,9.2,6,11.2l0.2,0.1l-0.2,0.1c-4.1,2.1-6,5.5-6,11.2v5.1c0,10.7,7,15.9,21.5,15.9h4.5c14.5,0,21.6-5.3,21.6-16.1v-12.1
		h6.2c1.7,0,2.6-0.9,2.6-2.7v-2.8C502.2,429.5,501.4,428.6,499.6,428.6z M483.8,447.9c0,6.1-3.3,8.4-11.9,8.4h-4.5
		c-8.5,0-11.8-2.4-11.8-8.4V445c0-4.5,0.9-8.2,12.1-8.2h16.1V447.9z"/>
</g>
<g>
	<g>
		<path class="st0" d="M771.4,378.5c-5.6,0-8.4,1.7-8.4,5.2v6.9c0,3.4,2.8,5.2,8.4,5.2c5.6,0,8.4-1.7,8.4-5.2v-6.9
			C779.9,380.2,777,378.5,771.4,378.5z M778.5,390.8c0,2.5-2.4,3.8-7.1,3.8c-4.7,0-7.1-1.3-7.1-3.8v-7.3c0-2.5,2.4-3.8,7.1-3.8
			c4.7,0,7.1,1.3,7.1,3.8V390.8z"/>
	</g>
	<path class="st0" d="M775,391.7l-1.8-3.7c1.4-0.4,1.7-1.3,1.7-2.1v-1.6c0-1-0.6-2.3-3.3-2.3h-2.9c-0.2,0-0.4,0.1-0.4,0.4v9.4
		c0,0.2,0.1,0.4,0.4,0.4h0.6c0.1,0,0.4-0.1,0.4-0.4v-3.6h2.1l1.8,3.7l0,0c0.1,0.1,0.1,0.3,0.4,0.3h0.6c0.2,0,0.3-0.1,0.4-0.2
		C775.1,391.9,775.1,391.8,775,391.7z M773.6,384.4v1.3c0,0.5-0.2,1.2-1.9,1.2h-1.9v-3.7h1.9C773.4,383.2,773.6,383.9,773.6,384.4z"
		/>
</g>
</svg>
